<?xml version="1.0" standalone="yes"?>
<svg xmlns="http://www.w3.org/2000/svg" width="30" height="30">
<path style="fill:none; stroke:none;" d="M0 0L0 30L30 30L30 0L0 0z"/>
<path style="fill:#ffcc7f; stroke:none;" d="M3 14L9 10C8.57903 15.1057 6.20792 19.1469 5 24L11 24C11.1059 19.0267 11.5022 12.8321 16 10L13 24C16.0375 24.3567 19.0819 25.0016 21.9452 23.5285C27.1057 20.8738 29.1545 11.5683 24.6821 7.35725C22.2483 5.0657 19.0082 5.84923 16 5.96142C9.23244 6.21381 3.89595 6.02795 3 14z"/>
<path style="fill:#000000; stroke:none;" d="M19 10C18.5498 13.5774 18.0346 16.4897 19 20C23.6761 16.9579 25.4234 11.9513 19 10z"/>
</svg>
