<?xml version="1.0" encoding="iso-8859-1"?>
<!-- Uploaded to: SVG Repo, www.svgrepo.com, Generator: SVG Repo Mixer Tools -->
<svg fill="#000000" height="800px" width="800px" version="1.1" id="Layer_1" xmlns="http://www.w3.org/2000/svg" xmlns:xlink="http://www.w3.org/1999/xlink" 
	 viewBox="0 0 501.993 501.993" xml:space="preserve">
<g>
	<g>
		<g>
			<path d="M415.83,317.294L180.948,82.413c-2.86-2.86-7.161-3.716-10.898-2.168c-3.736,1.548-6.173,5.195-6.173,9.239v330.664
				c0,3.33,1.657,6.442,4.421,8.299c2.764,1.857,6.271,2.218,9.354,0.96l56.469-23.027c6.223-2.537,13.061-2.498,19.255,0.112
				c6.194,2.61,10.997,7.477,13.527,13.703l23.063,56.763c6.328,15.576,21.384,25.035,37.244,25.035
				c5.023,0,10.128-0.949,15.061-2.953c9.935-4.037,17.704-11.7,21.874-21.58c4.17-9.88,4.244-20.791,0.208-30.726l-23.125-56.917
				c-5.212-12.825,0.978-27.512,13.797-32.74l57.51-23.452c3.101-1.265,5.364-3.999,6.026-7.282
				C419.224,323.06,418.198,319.663,415.83,317.294z M347.473,338.557c-23.018,9.386-34.132,35.758-24.775,58.788l23.125,56.917
				c2.026,4.985,1.989,10.461-0.104,15.419c-2.094,4.958-5.992,8.804-10.977,10.829c-10.29,4.183-22.067-0.789-26.248-11.081
				l-23.063-56.763c-4.542-11.18-13.168-19.917-24.289-24.604c-5.643-2.379-11.582-3.568-17.526-3.568
				c-5.769,0-11.543,1.122-17.047,3.366l-42.693,17.41V113.626L391.042,320.79L347.473,338.557z"/>
			<path d="M204.022,382.789c5.523,0,10-4.477,10-10.001V231.735c0-5.523-4.477-10-10-10c-5.523,0-10,4.477-10,10v141.054
				C194.022,378.312,198.499,382.789,204.022,382.789z"/>
			<path d="M204.022,203.111c5.523,0,10-4.477,10-10v-20.725c0-5.523-4.477-10-10-10c-5.523,0-10,4.477-10,10v20.725
				C194.022,198.634,198.499,203.111,204.022,203.111z"/>
			<path d="M173.876,44.457c5.523,0,10-4.478,10-10V10c0-5.523-4.477-10-10-10c-5.523,0-10,4.477-10,10v24.457
				C163.876,39.98,168.353,44.457,173.876,44.457z"/>
			<path d="M93.492,25.414c1.934,1.83,4.406,2.738,6.874,2.738c2.651,0,5.297-1.048,7.263-3.124
				c3.797-4.011,3.624-10.34-0.386-14.137l-4.259-4.033c-4.012-3.798-10.34-3.624-14.137,0.386
				c-3.797,4.011-3.624,10.34,0.386,14.137L93.492,25.414z"/>
			<path d="M126.711,58.864c1.952,1.953,4.512,2.929,7.071,2.929c2.56,0,5.119-0.976,7.072-2.928c3.905-3.906,3.905-10.238,0-14.143
				l-13.035-13.035c-3.906-3.905-10.238-3.905-14.143,0c-3.905,3.906-3.905,10.238,0,14.143L126.711,58.864z"/>
			<path d="M127.692,92.403c0-5.523-4.477-10-10-10H93.235c-5.523,0-10,4.477-10,10s4.477,10,10,10h24.456
				C123.214,102.403,127.692,97.926,127.692,92.403z"/>
			<path d="M127.957,125.425l-17.293,17.293c-3.905,3.906-3.905,10.238,0,14.143c1.952,1.953,4.512,2.929,7.071,2.929
				c2.559,0,5.118-0.976,7.072-2.929l17.293-17.293c3.905-3.906,3.905-10.238,0-14.143
				C138.194,121.52,131.862,121.52,127.957,125.425z"/>
			<path d="M221.821,90.642c0,5.523,4.477,10,10,10h16.305c5.523,0,10-4.477,10-10c0-5.523-4.477-10-10-10h-16.305
				C226.298,80.642,221.821,85.119,221.821,90.642z"/>
			<path d="M277.679,100.642h5.095c5.523,0,10-4.477,10-10c0-5.523-4.477-10-10-10h-5.095c-5.523,0-10,4.477-10,10
				C267.679,96.165,272.156,100.642,277.679,100.642z"/>
			<path d="M214.485,60.548c2.559,0,5.119-0.976,7.072-2.929l17.293-17.293c3.905-3.906,3.905-10.238,0-14.143
				c-3.906-3.905-10.238-3.905-14.143,0l-17.293,17.293c-3.905,3.906-3.905,10.238,0,14.143
				C209.366,59.572,211.926,60.548,214.485,60.548z"/>
		</g>
	</g>
</g>
</svg>